<svg width="20" height="20" viewBox="0 0 20 20" fill="none" xmlns="http://www.w3.org/2000/svg">
<mask id="mask0_478_76" style="mask-type:alpha" maskUnits="userSpaceOnUse" x="0" y="0" width="20" height="20">
<rect width="20" height="20" fill="#D9D9D9"/>
</mask>
<g mask="url(#mask0_478_76)">
<path d="M12.0626 10.0004L5.93755 3.87541C5.72922 3.66707 5.62852 3.42055 5.63547 3.13582C5.64241 2.8511 5.75005 2.60457 5.95838 2.39624C6.16672 2.18791 6.41325 2.08374 6.69797 2.08374C6.98269 2.08374 7.22922 2.18791 7.43755 2.39624L13.8334 8.81291C14.0001 8.97957 14.1251 9.16707 14.2084 9.37541C14.2917 9.58374 14.3334 9.79207 14.3334 10.0004C14.3334 10.2087 14.2917 10.4171 14.2084 10.6254C14.1251 10.8337 14.0001 11.0212 13.8334 11.1879L7.41672 17.6046C7.20838 17.8129 6.96533 17.9136 6.68755 17.9067C6.40977 17.8997 6.16672 17.7921 5.95838 17.5837C5.75005 17.3754 5.64588 17.1289 5.64588 16.8442C5.64588 16.5594 5.75005 16.3129 5.95838 16.1046L12.0626 10.0004Z" fill="black"/>
</g>
</svg>
